<svg xmlns="http://www.w3.org/2000/svg" viewBox="0 0 71 85.27"><defs><style>.cls-1{fill:#f9ae3b;}.cls-1,.cls-2,.cls-3{stroke:#000;stroke-miterlimit:10;}.cls-2{fill:#fff;}</style></defs><g id="Layer_2" data-name="Layer 2"><g id="color"><circle class="cls-1" cx="35.5" cy="43" r="35"/><path class="cls-2" d="M18.24,31c.11-3.28.26-6.22.43-7.57C19.83,14.22,21,5.27,27,1.87A11.22,11.22,0,0,1,32.63.5a10.22,10.22,0,0,1,5.21,1.77,11.46,11.46,0,0,1,3.43,4.15,21.52,21.52,0,0,1,1.66,4.37,60.66,60.66,0,0,1,1.65,7,69.66,69.66,0,0,1,.83,7.46c.08,1.12.15,2.13.21,3.07.09,1.46.16,2.77.23,4.09.08,1.7.16,3.42.27,5.5.42,8.1.64,10,.51,14.18-.07,2-.23,4-.51,6.76-.71,7.22-2,9.11-3.9,11.48a8.78,8.78,0,0,1-1.7,1.63A6,6,0,0,1,38.22,73a18.24,18.24,0,0,1-1.9.28,16.84,16.84,0,0,1-2.7.06A9.89,9.89,0,0,1,31.51,73c-.43-.12-1.19-.27-2.1-.6A10.71,10.71,0,0,1,26.67,71a11.78,11.78,0,0,1-3-3.4c-4.3-7.1-5.38-23.42-5.44-24.38-.11-1.76-.12-4.94-.06-8.28"/><path class="cls-2" d="M25.09,83.42c-.32.26-.92.08-1.33-.1-3.19-6.24-6.43-12.57-7.93-23.42,0,0-1.8-11.23.12-20.83.47-2.36.49-4.47,1.66-6.86.2-.42.42-.82.63-1.19,0,1.27-.07,2.6-.1,3.91l.1-1.88-1,14.31c-.09,11.3.84,12.89.81,13.84a67.51,67.51,0,0,0,2.84,10.88C23.17,78,26.13,82.56,25.09,83.42Z"/><path class="cls-2" d="M50.6,68.36c0,.28-.09.72-.16,1.25-.21,1.57-.45,3.21-.53,3.77a36.51,36.51,0,0,1-1.66,6.16c-.47,1.38-1.12,3.12-2,5.08-.72.25-1,.13-1.18,0-1-.75,1.08-3.93,2.6-9.7a48.12,48.12,0,0,0,1.06-5.2,55,55,0,0,0,.6-7.34c0-2.32,0-4.06-.12-6.27V56c-.21-4.52-1.06-10-1.06-10-.69-4.46-.84-4.59-1.65-9.7-.18-1.08-.57-3.57-.79-6.87,0-.4,0-.79-.07-1.18.52.91.57.87,1.09,1.78.47,1.28,1.28,3.28,1.48,3.91A90.18,90.18,0,0,1,50.6,68.36Z"/><path class="cls-2" d="M31.91,83.55s-2.52.64-2.5-11.12c.91.33,1.67.48,2.1.6a9.89,9.89,0,0,0,2.11.34,53.43,53.43,0,0,0-.28,6.49c0,1.36.12,3.24-.76,3.65A1,1,0,0,1,31.91,83.55Z"/><path class="cls-2" d="M38.82,83.55s-2.39.61-2.5-10.24a18.24,18.24,0,0,0,1.9-.28,6,6,0,0,0,2.3-1.09c-.15,3-.18,5.34-.18,7,0,2,.06,4.17-.94,4.58A1.08,1.08,0,0,1,38.82,83.55Z"/><rect class="cls-3" x="27.53" y="14.22" width="1.56" height="2.84" rx="0.78"/><rect class="cls-3" x="35.94" y="14.21" width="1.56" height="2.84" rx="0.78"/></g></g></svg>